<svg width="299" height="161" viewBox="0 0 299 161" fill="none" xmlns="http://www.w3.org/2000/svg">
<path d="M283.578 9.71433H272.95V6.53517C272.95 6.20727 272.82 5.8928 272.588 5.66094C272.356 5.42908 272.041 5.29883 271.713 5.29883H269.771C269.443 5.29883 269.128 5.42908 268.896 5.66094C268.665 5.8928 268.534 6.20727 268.534 6.53517V9.71433H257.906C255.69 9.7155 253.564 10.5965 251.997 12.1638C250.43 13.7311 249.549 15.8564 249.548 18.0729V23.0536C249.548 28.533 251.724 33.7879 255.599 37.6625C259.473 41.537 264.728 43.7137 270.208 43.7137H271.713C272.041 43.7137 272.356 43.5834 272.588 43.3516C272.82 43.1197 272.95 42.8052 272.95 42.4773V40.5345C272.95 40.2066 272.82 39.8922 272.588 39.6603C272.356 39.4284 272.041 39.2982 271.713 39.2982H270.208C265.899 39.2982 261.768 37.5867 258.721 34.5402C255.675 31.4938 253.963 27.3619 253.963 23.0536V18.0729C253.963 17.0271 254.379 16.0242 255.118 15.2847C255.857 14.5453 256.86 14.1298 257.906 14.1298H283.578C284.624 14.1298 285.627 14.5453 286.366 15.2847C287.105 16.0242 287.521 17.0271 287.521 18.0729V23.4024C287.518 24.6138 287.37 25.8205 287.079 26.9966C287.002 27.2996 287.043 27.6206 287.194 27.8944C287.345 28.1683 287.595 28.3745 287.892 28.4714L289.746 29.0763C289.907 29.1295 290.076 29.1491 290.244 29.1341C290.412 29.1191 290.575 29.0697 290.724 28.9889C290.872 28.9082 291.002 28.7979 291.106 28.6648C291.209 28.5317 291.285 28.3787 291.327 28.2153C291.729 26.6424 291.933 25.0257 291.936 23.4024V18.0729C291.935 15.8564 291.054 13.7311 289.487 12.1638C287.92 10.5965 285.794 9.7155 283.578 9.71433Z" fill="white"/>
<path d="M263.676 28.2591C265.627 28.2591 267.209 26.6776 267.209 24.7267C267.209 22.7758 265.627 21.1943 263.676 21.1943C261.725 21.1943 260.144 22.7758 260.144 24.7267C260.144 26.6776 261.725 28.2591 263.676 28.2591Z" fill="#71FF95"/>
<path d="M277.807 28.2591C279.757 28.2591 281.339 26.6776 281.339 24.7267C281.339 22.7758 279.757 21.1943 277.807 21.1943C275.856 21.1943 274.274 22.7758 274.274 24.7267C274.274 26.6776 275.856 28.2591 277.807 28.2591Z" fill="#71FF95"/>
<path d="M291.817 40.9746L295.817 42.5509C295.9 42.5835 295.97 42.6401 296.02 42.7133C296.07 42.7865 296.097 42.873 296.097 42.9616C296.097 43.0501 296.07 43.1367 296.02 43.2099C295.97 43.2831 295.9 43.3397 295.817 43.3722L291.817 44.9486C291.109 45.2286 290.466 45.6509 289.927 46.1893C289.389 46.7278 288.966 47.371 288.686 48.0792L287.11 52.0531C287.077 52.1355 287.021 52.2061 286.948 52.2559C286.874 52.3057 286.788 52.3324 286.699 52.3324C286.611 52.3324 286.524 52.3057 286.451 52.2559C286.378 52.2061 286.321 52.1355 286.289 52.0531L284.712 48.0792C284.433 47.3706 284.011 46.727 283.472 46.1885C282.934 45.6499 282.29 45.2279 281.582 44.9486L277.608 43.3722C277.526 43.3397 277.455 43.2831 277.405 43.2099C277.355 43.1367 277.329 43.0501 277.329 42.9616C277.329 42.873 277.355 42.7865 277.405 42.7133C277.455 42.6401 277.526 42.5835 277.608 42.5509L281.582 40.9746C282.29 40.6953 282.934 40.2733 283.472 39.7347C284.011 39.1961 284.433 38.5526 284.712 37.844L286.289 33.8701C286.321 33.7877 286.378 33.717 286.451 33.6672C286.524 33.6174 286.611 33.5908 286.699 33.5908C286.788 33.5908 286.874 33.6174 286.948 33.6672C287.021 33.717 287.077 33.7877 287.11 33.8701L288.686 37.844C288.966 38.5522 289.389 39.1954 289.927 39.7339C290.466 40.2723 291.109 40.6946 291.817 40.9746Z" fill="url(#paint0_linear_21875_91928)"/>
<path d="M57.7985 53.27V124.519H34.5337V105.434H26.6273V124.519H3.36249V53.27H57.7985ZM26.9 88.0764H34.2611V70.0825H26.9V88.0764ZM87.4894 53.27V124.519H65.0425V53.27H87.4894Z" fill="url(#paint1_linear_21875_91928)"/>
<rect width="282.592" height="27.3476" transform="translate(3.64673 133.092)" fill="url(#paint2_linear_21875_91928)"/>
<path d="M19.1365 139.662V155.385H14.0025V151.173H12.2577V155.385H7.12362V139.662H19.1365ZM12.3178 147.343H13.9423V143.372H12.3178V147.343ZM25.6887 139.662V155.385H20.7351V139.662H25.6887ZM42.3372 139.662V145.357H45.0647V139.662H50.0784V155.385H45.0647V149.689H42.3372V155.385H37.3235V139.662H42.3372ZM63.6921 139.662V155.385H58.5581V151.173H56.8133V155.385H51.6792V139.662H63.6921ZM56.8735 147.343H58.4979V143.372H56.8735V147.343ZM65.2907 153.459V141.587H67.216V139.662H78.0457V143.813H70.3646V151.233H78.0457V155.385H67.216V153.459H65.2907ZM84.4252 139.662V143.753H85.1672V141.587H86.6513V139.662H91.665V145.177H90.0004V146.661H88.4562V148.386H90.0004V149.87H91.665V155.385H86.6513V153.459H85.1672V151.294H84.4252V155.385H79.4114V139.662H84.4252ZM105.153 139.662V155.385H100.019V151.173H98.2745V155.385H93.1404V139.662H105.153ZM98.3346 147.343H99.9591V143.372H98.3346V147.343ZM106.632 143.813V139.662H118.644V143.813H115.235V155.385H110.041V143.813H106.632ZM125.005 139.662V145.357H127.732V139.662H132.746V155.385H127.732V149.689H125.005V155.385H119.991V139.662H125.005ZM134.347 153.459V141.587H136.152V139.662H147.042V141.587H148.947V153.459H147.042V155.385H136.152V153.459H134.347ZM139.301 151.294H143.873V143.873H139.301V151.294ZM155.56 139.662V141.587H157.425V143.432H159.411V145.357H160.153V139.662H165.026V155.385H160.153V153.459H158.167V151.614H156.182V149.689H155.44V155.385H150.426V139.662H155.56ZM188.683 139.662V147.162H187.319V147.904H188.683V155.385H176.67V139.662H188.683ZM181.864 151.173H183.489V149.689H181.864V151.173ZM181.864 145.357H183.489V143.873H181.864V145.357ZM193.45 149.749V148.265H191.966V146.781H190.161V139.782H195.295V143.552H196.779V144.976H198.384V143.552H199.888V139.782H205.022V146.781H203.217V148.265H201.733V149.749H200.249V155.505H194.934V149.749H193.45ZM221.342 139.662V155.385H216.388V139.662H221.342ZM222.949 153.459V141.587H224.754V139.662H235.644V141.587H237.549V153.459H235.644V155.385H224.754V153.459H222.949ZM227.903 151.294H232.475V143.873H227.903V151.294ZM239.028 153.459V141.587H240.953V139.662H251.783V143.813H244.102V151.233H251.783V155.385H240.953V153.459H239.028ZM253.149 153.459V141.587H254.954V139.662H265.844V141.587H267.749V153.459H265.844V155.385H254.954V153.459H253.149ZM258.102 151.294H262.675V143.873H258.102V151.294ZM280.298 139.662V141.086H281.722V153.961H280.298V155.385H269.228V139.662H280.298ZM274.422 151.173H276.528V143.873H274.422V151.173Z" fill="#011017"/>
<path d="M154.688 53.27V72.0818H119.881V105.707H154.688V124.519H96.3437V53.27H154.688ZM222.57 53.27V124.519H160.864V53.27H222.57ZM183.856 105.434H199.578V72.3545H183.856V105.434ZM279.986 53.27V59.7224H286.438V118.066H279.986V124.519H229.821V53.27H279.986ZM253.359 105.434H262.901V72.3545H253.359V105.434Z" fill="white"/>
<defs>
<linearGradient id="paint0_linear_21875_91928" x1="286.858" y1="30.9073" x2="295.751" y2="35.5652" gradientUnits="userSpaceOnUse">
<stop stop-color="#CEDD38"/>
<stop offset="1" stop-color="#39A4DD"/>
</linearGradient>
<linearGradient id="paint1_linear_21875_91928" x1="31.486" y1="44.1194" x2="82.4886" y2="123.925" gradientUnits="userSpaceOnUse">
<stop stop-color="#BFD84A"/>
<stop offset="1" stop-color="#00AFB5"/>
</linearGradient>
<linearGradient id="paint2_linear_21875_91928" x1="0" y1="13.6738" x2="282.592" y2="13.6738" gradientUnits="userSpaceOnUse">
<stop stop-color="#BFD84A"/>
<stop offset="1" stop-color="#03B0B4"/>
</linearGradient>
</defs>
</svg>
